<svg width="224" height="257" viewBox="0 0 224 257" fill="none" xmlns="http://www.w3.org/2000/svg">
<mask id="mask0_8547_51559" style="mask-type:luminance" maskUnits="userSpaceOnUse" x="0" y="0" width="224" height="224">
<path d="M224 0H0V224H224V0Z" fill="white"/>
</mask>
<g mask="url(#mask0_8547_51559)">
<g opacity="0.25">
<path d="M207.152 165.044C214.797 165.044 220.995 158.846 220.995 151.2C220.995 143.555 214.797 137.357 207.152 137.357C199.506 137.357 193.309 143.555 193.309 151.2C193.309 158.846 199.506 165.044 207.152 165.044Z" fill="#A1C6FF"/>
<path d="M45.7983 137.357V165.041H33.1535C25.5083 165.041 19.3125 158.845 19.3125 151.203C19.3125 143.56 25.5106 137.357 33.1535 137.357H45.7983Z" fill="#A1C6FF"/>
</g>
<g opacity="0.25">
<path d="M20.4266 92.4671H19.535C18.2448 92.4671 16.9814 92.5925 15.7606 92.8322C6.77824 94.5906 0 102.502 0 112.002C0 117.398 2.18624 122.279 5.72096 125.812C9.25568 129.346 14.1389 131.533 19.535 131.533H45.8013V56.8578C41.2294 52.6959 38.3578 46.6972 38.3578 40.0265C38.3578 34.4892 40.3379 29.4089 43.6307 25.4665C47.7994 20.4623 54.0803 17.2815 61.105 17.2815C65.5962 17.2815 69.7827 18.5829 73.3085 20.8297H153.377C156.092 20.8297 158.648 22.0975 160.268 24.2457L182.276 53.4441C182.688 53.4172 183.1 53.4015 183.519 53.4015H204.465C215.253 53.4015 224 44.6543 224 33.8665C224 28.4748 221.814 23.5916 218.279 20.0524C214.744 16.5177 209.861 14.3314 204.465 14.3314H19.535C8.7472 14.3314 0 23.0764 0 33.8642C0 39.2604 2.18624 44.1413 5.72096 47.6783C8.05504 50.0124 10.9782 51.7573 14.2486 52.6757C14.737 52.8146 15.232 52.9311 15.7382 53.0319C16.9658 53.2738 18.2358 53.3993 19.535 53.3993H20.44C20.9754 53.5045 21.5018 53.6345 22.0214 53.7845C25.312 54.7276 28.2554 56.4927 30.6118 58.8492C34.216 62.4578 36.4448 67.4329 36.4448 72.9321C36.4448 78.4313 34.216 83.413 30.6118 87.0194C27.8835 89.7477 24.3622 91.6876 20.4288 92.4671H20.4266Z" fill="#A1C6FF"/>
<path d="M204.464 92.4672H190.301V134.857C193.414 132.758 197.166 131.533 201.203 131.533H204.464C215.252 131.533 223.999 122.788 223.999 112C223.999 106.608 221.813 101.721 218.278 98.1859C214.744 94.6512 209.86 92.465 204.464 92.465V92.4672Z" fill="#A1C6FF"/>
<path d="M204.463 170.603H201.202C197.163 170.603 193.413 169.378 190.3 167.281V189.858C190.3 194.54 186.454 198.334 181.712 198.334H54.3855C49.6435 198.334 45.7974 194.54 45.7974 189.858V170.603H19.5311C8.7433 170.603 -0.00390625 179.348 -0.00390625 190.136C-0.00390625 195.532 2.18234 200.413 5.71706 203.95C9.25178 207.485 14.135 209.671 19.5311 209.671H204.461C215.249 209.671 223.996 200.924 223.996 190.136C223.996 184.744 221.81 179.859 218.275 176.328C214.74 172.791 209.857 170.605 204.461 170.605L204.463 170.603Z" fill="#A1C6FF"/>
</g>
<path d="M177.195 199.004H172.5C172.128 199.004 171.828 198.704 171.828 198.332C171.828 197.96 172.128 197.66 172.5 197.66H177.195C177.567 197.66 177.867 197.96 177.867 198.332C177.867 198.704 177.567 199.004 177.195 199.004ZM167.803 199.004H163.107C162.736 199.004 162.435 198.704 162.435 198.332C162.435 197.96 162.736 197.66 163.107 197.66H167.803C168.174 197.66 168.475 197.96 168.475 198.332C168.475 198.704 168.174 199.004 167.803 199.004ZM158.41 199.004H153.715C153.343 199.004 153.043 198.704 153.043 198.332C153.043 197.96 153.343 197.66 153.715 197.66H158.41C158.782 197.66 159.082 197.96 159.082 198.332C159.082 198.704 158.782 199.004 158.41 199.004ZM149.018 199.004H144.323C143.951 199.004 143.651 198.704 143.651 198.332C143.651 197.96 143.951 197.66 144.323 197.66H149.018C149.39 197.66 149.69 197.96 149.69 198.332C149.69 198.704 149.39 199.004 149.018 199.004ZM139.626 199.004H134.928C134.556 199.004 134.256 198.704 134.256 198.332C134.256 197.96 134.556 197.66 134.928 197.66H139.626C139.997 197.66 140.298 197.96 140.298 198.332C140.298 198.704 139.997 199.004 139.626 199.004ZM130.233 199.004H125.538C125.166 199.004 124.866 198.704 124.866 198.332C124.866 197.96 125.166 197.66 125.538 197.66H130.233C130.605 197.66 130.905 197.96 130.905 198.332C130.905 198.704 130.605 199.004 130.233 199.004ZM120.841 199.004H116.146C115.774 199.004 115.474 198.704 115.474 198.332C115.474 197.96 115.774 197.66 116.146 197.66H120.841C121.213 197.66 121.513 197.96 121.513 198.332C121.513 198.704 121.213 199.004 120.841 199.004ZM111.449 199.004H106.751C106.379 199.004 106.079 198.704 106.079 198.332C106.079 197.96 106.379 197.66 106.751 197.66H111.449C111.82 197.66 112.121 197.96 112.121 198.332C112.121 198.704 111.82 199.004 111.449 199.004ZM102.056 199.004H97.359C96.9872 199.004 96.687 198.704 96.687 198.332C96.687 197.96 96.9872 197.66 97.359 197.66H102.056C102.428 197.66 102.728 197.96 102.728 198.332C102.728 198.704 102.428 199.004 102.056 199.004ZM92.664 199.004H87.9667C87.5948 199.004 87.2947 198.704 87.2947 198.332C87.2947 197.96 87.5948 197.66 87.9667 197.66H92.664C93.0358 197.66 93.336 197.96 93.336 198.332C93.336 198.704 93.0358 199.004 92.664 199.004ZM83.2716 199.004H78.5766C78.2047 199.004 77.9046 198.704 77.9046 198.332C77.9046 197.96 78.2047 197.66 78.5766 197.66H83.2716C83.6435 197.66 83.9436 197.96 83.9436 198.332C83.9436 198.704 83.6435 199.004 83.2716 199.004ZM73.8793 199.004H69.1843C68.8124 199.004 68.5123 198.704 68.5123 198.332C68.5123 197.96 68.8124 197.66 69.1843 197.66H73.8793C74.2512 197.66 74.5513 197.96 74.5513 198.332C74.5513 198.704 74.2512 199.004 73.8793 199.004ZM64.487 199.004H59.792C59.4201 199.004 59.12 198.704 59.12 198.332C59.12 197.96 59.4201 197.66 59.792 197.66H64.487C64.8588 197.66 65.159 197.96 65.159 198.332C65.159 198.704 64.8588 199.004 64.487 199.004ZM55.0947 199.004H54.3891C52.9308 199.004 51.5331 198.679 50.2384 198.036C49.9068 197.87 49.7702 197.467 49.9337 197.136C50.0995 196.804 50.5027 196.667 50.8342 196.833C51.943 197.382 53.1369 197.662 54.3868 197.662H55.0924C55.4643 197.662 55.7644 197.962 55.7644 198.334C55.7644 198.706 55.4643 199.006 55.0924 199.006L55.0947 199.004ZM181.892 199.004C181.527 199.004 181.227 198.712 181.22 198.345C181.213 197.973 181.507 197.666 181.879 197.66C183.337 197.631 184.753 197.207 185.976 196.437C186.289 196.24 186.704 196.334 186.903 196.647C187.102 196.961 187.006 197.375 186.692 197.575C185.263 198.477 183.606 198.972 181.903 199.006C181.899 199.006 181.894 199.006 181.89 199.006L181.892 199.004ZM47.0934 195.003C46.8694 195.003 46.6521 194.891 46.5244 194.689C45.615 193.249 45.1334 191.587 45.1289 189.882C45.1289 189.511 45.4268 189.21 45.7987 189.208C46.1683 189.208 46.4707 189.508 46.4707 189.878C46.4752 191.329 46.8851 192.745 47.6601 193.97C47.8572 194.284 47.7632 194.698 47.4496 194.898C47.3376 194.967 47.2143 195.001 47.0911 195.001L47.0934 195.003ZM189.441 194.235C189.34 194.235 189.239 194.212 189.145 194.165C188.811 194.002 188.675 193.599 188.841 193.265C189.367 192.199 189.634 191.052 189.634 189.858V189C189.634 188.628 189.934 188.328 190.306 188.328C190.677 188.328 190.978 188.628 190.978 189V189.858C190.978 191.26 190.664 192.606 190.046 193.861C189.929 194.098 189.69 194.235 189.443 194.235H189.441ZM45.8009 185.859C45.4291 185.859 45.1289 185.559 45.1289 185.187V180.49C45.1289 180.118 45.4291 179.818 45.8009 179.818C46.1727 179.818 46.4729 180.118 46.4729 180.49V185.187C46.4729 185.559 46.1727 185.859 45.8009 185.859ZM190.303 184.977C189.931 184.977 189.631 184.677 189.631 184.305V179.61C189.631 179.238 189.931 178.938 190.303 178.938C190.675 178.938 190.975 179.238 190.975 179.61V184.305C190.975 184.677 190.675 184.977 190.303 184.977ZM45.8009 176.467C45.4291 176.467 45.1289 176.167 45.1289 175.795V171.1C45.1289 170.728 45.4291 170.428 45.8009 170.428C46.1727 170.428 46.4729 170.728 46.4729 171.1V175.795C46.4729 176.167 46.1727 176.467 45.8009 176.467ZM190.303 175.584C189.931 175.584 189.631 175.284 189.631 174.912V170.217C189.631 169.846 189.931 169.545 190.303 169.545C190.675 169.545 190.975 169.846 190.975 170.217V174.912C190.975 175.284 190.675 175.584 190.303 175.584ZM45.8009 167.075C45.4291 167.075 45.1289 166.775 45.1289 166.403V161.708C45.1289 161.336 45.4291 161.036 45.8009 161.036C46.1727 161.036 46.4729 161.336 46.4729 161.708V166.403C46.4729 166.775 46.1727 167.075 45.8009 167.075ZM190.303 166.192C189.931 166.192 189.631 165.892 189.631 165.52V160.825C189.631 160.453 189.931 160.153 190.303 160.153C190.675 160.153 190.975 160.453 190.975 160.825V165.52C190.975 165.892 190.675 166.192 190.303 166.192ZM45.8009 157.682C45.4291 157.682 45.1289 157.382 45.1289 157.01V152.315C45.1289 151.944 45.4291 151.643 45.8009 151.643C46.1727 151.643 46.4729 151.944 46.4729 152.315V157.01C46.4729 157.382 46.1727 157.682 45.8009 157.682ZM190.303 156.8C189.931 156.8 189.631 156.5 189.631 156.128V151.433C189.631 151.061 189.931 150.761 190.303 150.761C190.675 150.761 190.975 151.061 190.975 151.433V156.128C190.975 156.5 190.675 156.8 190.303 156.8ZM45.8009 148.29C45.4291 148.29 45.1289 147.99 45.1289 147.618V142.923C45.1289 142.551 45.4291 142.251 45.8009 142.251C46.1727 142.251 46.4729 142.551 46.4729 142.923V147.618C46.4729 147.99 46.1727 148.29 45.8009 148.29ZM190.303 147.408C189.931 147.408 189.631 147.107 189.631 146.736V142.04C189.631 141.669 189.931 141.368 190.303 141.368C190.675 141.368 190.975 141.669 190.975 142.04V146.736C190.975 147.107 190.675 147.408 190.303 147.408ZM45.8009 138.898C45.4291 138.898 45.1289 138.598 45.1289 138.226V133.531C45.1289 133.159 45.4291 132.859 45.8009 132.859C46.1727 132.859 46.4729 133.159 46.4729 133.531V138.226C46.4729 138.598 46.1727 138.898 45.8009 138.898ZM190.303 138.015C189.931 138.015 189.631 137.715 189.631 137.343V132.646C189.631 132.274 189.931 131.974 190.303 131.974C190.675 131.974 190.975 132.274 190.975 132.646V137.343C190.975 137.715 190.675 138.015 190.303 138.015ZM45.8009 129.505C45.4291 129.505 45.1289 129.205 45.1289 128.833V124.138C45.1289 123.767 45.4291 123.466 45.8009 123.466C46.1727 123.466 46.4729 123.767 46.4729 124.138V128.833C46.4729 129.205 46.1727 129.505 45.8009 129.505ZM190.303 128.623C189.931 128.623 189.631 128.323 189.631 127.951V123.256C189.631 122.884 189.931 122.584 190.303 122.584C190.675 122.584 190.975 122.884 190.975 123.256V127.951C190.975 128.323 190.675 128.623 190.303 128.623ZM45.8009 120.113C45.4291 120.113 45.1289 119.813 45.1289 119.441V114.744C45.1289 114.372 45.4291 114.072 45.8009 114.072C46.1727 114.072 46.4729 114.372 46.4729 114.744V119.441C46.4729 119.813 46.1727 120.113 45.8009 120.113ZM190.303 119.231C189.931 119.231 189.631 118.93 189.631 118.559V113.864C189.631 113.492 189.931 113.192 190.303 113.192C190.675 113.192 190.975 113.492 190.975 113.864V118.559C190.975 118.93 190.675 119.231 190.303 119.231ZM45.8009 110.721C45.4291 110.721 45.1289 110.421 45.1289 110.049V105.354C45.1289 104.982 45.4291 104.682 45.8009 104.682C46.1727 104.682 46.4729 104.982 46.4729 105.354V110.049C46.4729 110.421 46.1727 110.721 45.8009 110.721ZM190.303 109.838C189.931 109.838 189.631 109.538 189.631 109.166V104.469C189.631 104.097 189.931 103.797 190.303 103.797C190.675 103.797 190.975 104.097 190.975 104.469V109.166C190.975 109.538 190.675 109.838 190.303 109.838ZM45.8009 101.328C45.4291 101.328 45.1289 101.028 45.1289 100.656V95.9592C45.1289 95.5874 45.4291 95.2872 45.8009 95.2872C46.1727 95.2872 46.4729 95.5874 46.4729 95.9592V100.656C46.4729 101.028 46.1727 101.328 45.8009 101.328ZM190.303 100.446C189.931 100.446 189.631 100.146 189.631 99.7739V95.0766C189.631 94.7048 189.931 94.4046 190.303 94.4046C190.675 94.4046 190.975 94.7048 190.975 95.0766V99.7739C190.975 100.146 190.675 100.446 190.303 100.446ZM45.8009 91.9361C45.4291 91.9361 45.1289 91.636 45.1289 91.2642V86.5669C45.1289 86.195 45.4291 85.8949 45.8009 85.8949C46.1727 85.8949 46.4729 86.195 46.4729 86.5669V91.2642C46.4729 91.636 46.1727 91.9361 45.8009 91.9361ZM190.303 91.0536C189.931 91.0536 189.631 90.7534 189.631 90.3816V85.6865C189.631 85.3147 189.931 85.0145 190.303 85.0145C190.675 85.0145 190.975 85.3147 190.975 85.6865V90.3816C190.975 90.7534 190.675 91.0536 190.303 91.0536ZM45.8009 82.5438C45.4291 82.5438 45.1289 82.2437 45.1289 81.8718V77.1745C45.1289 76.8027 45.4291 76.5025 45.8009 76.5025C46.1727 76.5025 46.4729 76.8027 46.4729 77.1745V81.8718C46.4729 82.2437 46.1727 82.5438 45.8009 82.5438ZM190.303 81.6613C189.931 81.6613 189.631 81.3611 189.631 80.9893V76.2942C189.631 75.9224 189.931 75.6222 190.303 75.6222C190.675 75.6222 190.975 75.9224 190.975 76.2942V80.9893C190.975 81.3611 190.675 81.6613 190.303 81.6613ZM45.8009 73.1515C45.4291 73.1515 45.1289 72.8514 45.1289 72.4795V67.7845C45.1289 67.4126 45.4291 67.1125 45.8009 67.1125C46.1727 67.1125 46.4729 67.4126 46.4729 67.7845V72.4795C46.4729 72.8514 46.1727 73.1515 45.8009 73.1515ZM190.303 72.269C189.931 72.269 189.631 71.9688 189.631 71.597V66.8705C189.631 66.4987 189.931 66.1986 190.303 66.1986C190.675 66.1986 190.975 66.4987 190.975 66.8705V71.597C190.975 71.9688 190.675 72.269 190.303 72.269ZM45.8009 63.7592C45.4291 63.7592 45.1289 63.459 45.1289 63.0872V58.3921C45.1289 58.0203 45.4291 57.7201 45.8009 57.7201C46.1727 57.7201 46.4729 58.0203 46.4729 58.3921V63.0872C46.4729 63.459 46.1727 63.7592 45.8009 63.7592ZM189.006 63.0917C188.782 63.0917 188.565 62.9797 188.437 62.7781C188.323 62.5966 188.198 62.4174 188.07 62.2449L185.667 59.0574C185.443 58.7617 185.503 58.3406 185.799 58.1166C186.094 57.8926 186.515 57.9531 186.739 58.2488L189.143 61.4363C189.295 61.6379 189.441 61.8485 189.575 62.0613C189.772 62.3749 189.678 62.7893 189.365 62.9886C189.253 63.0581 189.13 63.0917 189.006 63.0917ZM183.377 55.5742C183.173 55.5742 182.972 55.4824 182.84 55.3077L180.013 51.5579C179.789 51.2622 179.849 50.8411 180.145 50.6171C180.441 50.3931 180.862 50.4536 181.086 50.7493L183.913 54.499C184.137 54.7947 184.076 55.2158 183.78 55.4398C183.659 55.5317 183.518 55.5742 183.377 55.5742ZM45.8009 54.3669C45.4291 54.3669 45.1289 54.0667 45.1289 53.6949V48.9976C45.1289 48.6257 45.4291 48.3256 45.8009 48.3256C46.1727 48.3256 46.4729 48.6257 46.4729 48.9976V53.6949C46.4729 54.0667 46.1727 54.3669 45.8009 54.3669ZM177.723 48.0747C177.52 48.0747 177.318 47.9829 177.186 47.8081L174.359 44.0584C174.135 43.7627 174.195 43.3416 174.491 43.1176C174.787 42.8936 175.208 42.9541 175.432 43.2497L178.259 46.9995C178.483 47.2952 178.422 47.7163 178.127 47.9403C178.006 48.0321 177.865 48.0747 177.723 48.0747ZM45.8009 44.9746C45.4291 44.9746 45.1289 44.6744 45.1289 44.3026V39.6053C45.1289 39.2334 45.4291 38.9333 45.8009 38.9333C46.1727 38.9333 46.4729 39.2334 46.4729 39.6053V44.3026C46.4729 44.6744 46.1727 44.9746 45.8009 44.9746ZM172.07 40.573C171.866 40.573 171.664 40.4811 171.532 40.3064L168.705 36.5566C168.481 36.261 168.542 35.8398 168.837 35.6158C169.133 35.3918 169.554 35.4523 169.778 35.748L172.605 39.4977C172.829 39.7934 172.769 40.2146 172.473 40.4386C172.352 40.5304 172.211 40.573 172.07 40.573ZM45.8009 35.5822C45.4291 35.5822 45.1289 35.2821 45.1289 34.9102V30.2152C45.1289 29.8434 45.4291 29.5432 45.8009 29.5432C46.1727 29.5432 46.4729 29.8434 46.4729 30.2152V34.9102C46.4729 35.2821 46.1727 35.5822 45.8009 35.5822ZM166.416 33.0734C166.212 33.0734 166.011 32.9816 165.878 32.8069L163.051 29.0571C162.827 28.7614 162.888 28.3403 163.184 28.1163C163.479 27.8923 163.9 27.9528 164.124 28.2485L166.951 31.9982C167.175 32.2939 167.115 32.715 166.819 32.939C166.698 33.0309 166.557 33.0734 166.416 33.0734ZM46.6387 26.3176C46.5401 26.3176 46.4393 26.2952 46.3452 26.2504C46.0115 26.0891 45.8726 25.6859 46.0339 25.3521C46.7731 23.8289 47.9244 22.5387 49.3625 21.6203C49.6761 21.421 50.0905 21.5128 50.2899 21.8241C50.4892 22.1377 50.3974 22.5522 50.086 22.7515C48.8563 23.5378 47.8729 24.6398 47.2435 25.939C47.127 26.1787 46.8873 26.3176 46.6387 26.3176ZM160.762 25.5739C160.558 25.5739 160.357 25.4821 160.225 25.3074L159.73 24.651C159.017 23.7058 158.079 22.9195 157.017 22.3774C156.685 22.2094 156.555 21.804 156.723 21.4725C156.891 21.141 157.297 21.011 157.628 21.179C158.869 21.813 159.969 22.7336 160.803 23.8424L161.298 24.4987C161.522 24.7944 161.461 25.2155 161.165 25.4395C161.044 25.5314 160.903 25.5739 160.762 25.5739ZM54.1584 21.5038C53.7955 21.5038 53.4953 21.2149 53.4864 20.8498C53.4774 20.4779 53.7708 20.171 54.1404 20.1598C54.2233 20.1598 54.3062 20.1576 54.3868 20.1576H58.8534C59.2252 20.1576 59.5254 20.4578 59.5254 20.8296C59.5254 21.2014 59.2252 21.5016 58.8534 21.5016H54.3868C54.3151 21.5016 54.2457 21.5016 54.174 21.5038C54.1673 21.5038 54.1628 21.5038 54.1561 21.5038H54.1584ZM152.779 21.5016H148.082C147.71 21.5016 147.41 21.2014 147.41 20.8296C147.41 20.4578 147.71 20.1576 148.082 20.1576H152.779C153.151 20.1576 153.451 20.4578 153.451 20.8296C153.451 21.2014 153.151 21.5016 152.779 21.5016ZM143.387 21.5016H138.691C138.32 21.5016 138.019 21.2014 138.019 20.8296C138.019 20.4578 138.32 20.1576 138.691 20.1576H143.387C143.758 20.1576 144.059 20.4578 144.059 20.8296C144.059 21.2014 143.758 21.5016 143.387 21.5016ZM133.994 21.5016H129.299C128.927 21.5016 128.627 21.2014 128.627 20.8296C128.627 20.4578 128.927 20.1576 129.299 20.1576H133.994C134.366 20.1576 134.666 20.4578 134.666 20.8296C134.666 21.2014 134.366 21.5016 133.994 21.5016ZM124.602 21.5016H119.907C119.535 21.5016 119.235 21.2014 119.235 20.8296C119.235 20.4578 119.535 20.1576 119.907 20.1576H124.602C124.974 20.1576 125.274 20.4578 125.274 20.8296C125.274 21.2014 124.974 21.5016 124.602 21.5016ZM115.21 21.5016H110.515C110.143 21.5016 109.843 21.2014 109.843 20.8296C109.843 20.4578 110.143 20.1576 110.515 20.1576H115.21C115.581 20.1576 115.882 20.4578 115.882 20.8296C115.882 21.2014 115.581 21.5016 115.21 21.5016ZM105.817 21.5016H101.122C100.75 21.5016 100.45 21.2014 100.45 20.8296C100.45 20.4578 100.75 20.1576 101.122 20.1576H105.817C106.189 20.1576 106.489 20.4578 106.489 20.8296C106.489 21.2014 106.189 21.5016 105.817 21.5016ZM96.4249 21.5016H91.7299C91.358 21.5016 91.0579 21.2014 91.0579 20.8296C91.0579 20.4578 91.358 20.1576 91.7299 20.1576H96.4249C96.7967 20.1576 97.0969 20.4578 97.0969 20.8296C97.0969 21.2014 96.7967 21.5016 96.4249 21.5016ZM87.0326 21.5016H82.3353C81.9635 21.5016 81.6633 21.2014 81.6633 20.8296C81.6633 20.4578 81.9635 20.1576 82.3353 20.1576H87.0326C87.4044 20.1576 87.7046 20.4578 87.7046 20.8296C87.7046 21.2014 87.4044 21.5016 87.0326 21.5016ZM77.6403 21.5016H72.943C72.5712 21.5016 72.271 21.2014 72.271 20.8296C72.271 20.4578 72.5712 20.1576 72.943 20.1576H77.6403C78.0121 20.1576 78.3123 20.4578 78.3123 20.8296C78.3123 21.2014 78.0121 21.5016 77.6403 21.5016ZM68.2479 21.5016H63.5507C63.1788 21.5016 62.8787 21.2014 62.8787 20.8296C62.8787 20.4578 63.1788 20.1576 63.5507 20.1576H68.2479C68.6198 20.1576 68.92 20.4578 68.92 20.8296C68.92 21.2014 68.6198 21.5016 68.2479 21.5016Z" fill="#A1C6FF"/>
<path d="M171.452 186.877H64.6493C60.3059 186.877 56.7734 183.344 56.7734 179.001V42.5266C56.7734 38.1832 60.3059 34.6508 64.6493 34.6508H147.682C150.159 34.6508 152.522 35.838 154.001 37.8271L177.769 69.7852C178.773 71.1359 179.326 72.8047 179.326 74.4847V179.001C179.326 183.344 175.794 186.877 171.45 186.877H171.452ZM64.6493 35.9948C61.0474 35.9948 58.1174 38.9247 58.1174 42.5266V179.001C58.1174 182.603 61.0474 185.533 64.6493 185.533H171.452C175.054 185.533 177.984 182.603 177.984 179.001V74.4847C177.984 73.0892 177.525 71.7048 176.694 70.5871L152.925 38.6312C151.698 36.9826 149.74 35.997 147.684 35.997H64.6515L64.6493 35.9948Z" fill="#A1C6FF"/>
<path d="M178.656 74.4844V139.462H57.4453V42.5264C57.4453 38.5481 60.6709 35.3225 64.6491 35.3225H147.681C149.96 35.3225 152.101 36.3977 153.461 38.2278L177.232 70.1859C178.154 71.4291 178.654 72.9343 178.654 74.4844H178.656Z" fill="#E7F1FF"/>
<path d="M113.6 66.2161L91.182 103.641C90.7198 104.442 90.4753 105.349 90.4727 106.273C90.4701 107.198 90.7096 108.107 91.1673 108.91C91.625 109.713 92.285 110.382 93.0816 110.851C93.8783 111.319 94.7837 111.571 95.708 111.581H140.544C141.468 111.571 142.374 111.319 143.17 110.851C143.967 110.382 144.627 109.713 145.085 108.91C145.542 108.107 145.782 107.198 145.779 106.273C145.777 105.349 145.532 104.442 145.07 103.641L122.652 66.2161C122.18 65.4383 121.516 64.7951 120.723 64.3488C119.93 63.9024 119.036 63.668 118.126 63.668C117.216 63.668 116.322 63.9024 115.529 64.3488C114.736 64.7951 114.072 65.4383 113.6 66.2161Z" stroke="#A1C6FF" stroke-width="2.98667" stroke-linecap="round" stroke-linejoin="round"/>
<path d="M118.125 79.8204V92.96" stroke="#A1C6FF" stroke-width="2.98667" stroke-linecap="round" stroke-linejoin="round"/>
<path d="M118.125 100.994H118.15" stroke="#A1C6FF" stroke-width="2.98667" stroke-linecap="round" stroke-linejoin="round"/>
<g opacity="0.5">
<path d="M178.654 139.462V179C178.654 182.978 175.431 186.204 171.45 186.204H64.6491C60.6709 186.204 57.4453 182.978 57.4453 179V139.462H178.656H178.654Z" fill="#A1C6FF"/>
</g>
<path d="M171.454 186.876H64.6532C60.3098 186.876 56.7773 183.344 56.7773 179V138.79H179.332V179C179.332 183.344 175.8 186.876 171.456 186.876H171.454ZM58.1191 140.134V179C58.1191 182.602 61.049 185.532 64.6509 185.532H171.452C175.054 185.532 177.984 182.602 177.984 179V140.134H58.1191Z" fill="#A1C6FF"/>
<path d="M151.301 37.2915V71.2634C151.301 71.6218 151.59 71.9129 151.948 71.9152L177.348 72.0899C177.885 72.0944 178.196 71.4806 177.874 71.0505L152.475 36.9017C152.1 36.3977 151.301 36.6621 151.301 37.2915Z" fill="#A1C6FF"/>
<path d="M83.8521 40.0265C83.8521 49.0223 78.6329 56.7973 71.0572 60.4866C68.0534 61.9561 64.6732 62.7759 61.1027 62.7759C48.5408 62.7759 38.3555 52.5906 38.3555 40.0265C38.3555 34.4892 40.3356 29.4089 43.6284 25.4665C47.7971 20.4623 54.078 17.2815 61.1027 17.2815C73.6691 17.2815 83.8521 27.4668 83.8521 40.0287V40.0265Z" fill="#FFFFFE"/>
<path d="M61.1014 62.888C48.4969 62.888 38.2422 52.6333 38.2422 40.0266C38.2422 34.6819 40.1238 29.4874 43.5398 25.3926C47.8966 20.1645 54.2963 17.1674 61.1014 17.1674C73.7081 17.1674 83.9628 27.4221 83.9628 40.0266C83.9628 44.3946 82.7264 48.6416 80.3878 52.3062C78.1119 55.8746 74.8998 58.7373 71.103 60.5875C67.9804 62.1152 64.6137 62.888 61.0992 62.888H61.1014ZM61.1014 17.3914C54.3635 17.3914 48.0265 20.3594 43.7123 25.536C40.3299 29.5882 38.4662 34.7334 38.4662 40.0243C38.4662 52.5078 48.6201 62.6618 61.1014 62.6618C64.5824 62.6618 67.9132 61.8957 71.0067 60.3837C78.8601 56.5578 83.7388 48.7581 83.7388 40.0243C83.7388 27.543 73.5827 17.3891 61.1014 17.3891V17.3914Z" fill="#A1C6FF"/>
<g opacity="0.25">
<path d="M83.8521 40.0262C83.8521 49.0221 78.6329 56.7971 71.0572 60.4864C68.0534 61.9558 64.6732 62.7757 61.1027 62.7757C48.5408 62.7757 38.3555 52.5904 38.3555 40.0262C38.3555 34.4889 40.3356 29.4086 43.6284 25.4662C47.7971 20.4621 54.078 17.2812 61.1027 17.2812C73.6691 17.2812 83.8521 27.4665 83.8521 40.0285V40.0262Z" fill="#A1C6FF"/>
</g>
<path d="M61.1028 63.4479C48.1892 63.4479 37.6836 52.9401 37.6836 40.0265C37.6836 34.5519 39.6122 29.2275 43.1111 25.0342C47.5732 19.6783 54.1297 16.6073 61.1006 16.6073C74.0142 16.6073 84.522 27.1129 84.522 40.0265C84.522 44.502 83.2564 48.8521 80.8596 52.6086C78.5278 56.2643 75.2394 59.1964 71.3486 61.0915C68.1498 62.655 64.7002 63.4479 61.1006 63.4479H61.1028ZM61.1028 17.9513C54.5329 17.9513 48.3505 20.8476 44.1438 25.8943C40.8442 29.8457 39.0276 34.8655 39.0276 40.0243C39.0276 52.1987 48.9306 62.1017 61.1028 62.1017C64.4964 62.1017 67.7466 61.3535 70.7617 59.8796C78.4225 56.15 83.1802 48.5407 83.1802 40.0243C83.1802 27.8521 73.2772 17.9491 61.1028 17.9491V17.9513Z" fill="#A1C6FF"/>
<g opacity="0.75">
<path d="M69.6655 42.2688C69.6655 45.584 68.9218 48.1399 67.4322 49.9364C65.9426 51.7351 63.846 52.6333 61.1378 52.6333C58.4296 52.6333 56.2949 51.7284 54.8008 49.9207C53.3068 48.113 52.5586 45.5616 52.5586 42.2688V37.7866C52.5586 34.4714 53.3023 31.9156 54.7919 30.1191C56.2815 28.3226 58.3848 27.4221 61.1042 27.4221C63.8235 27.4221 65.9292 28.3271 67.4232 30.1348C68.9173 31.9447 69.6655 34.5005 69.6655 37.8023V42.2688ZM63.9848 37.0608C63.9848 35.298 63.7541 33.9786 63.2949 33.1095C62.8335 32.2381 62.1032 31.8036 61.1042 31.8036C60.1051 31.8036 59.4152 32.209 58.9717 33.0176C58.5282 33.8263 58.2885 35.0516 58.2549 36.6912V42.961C58.2549 44.7933 58.4856 46.1328 58.9448 46.9796C59.4063 47.8285 60.1365 48.2519 61.1355 48.2519C62.1346 48.2519 62.8155 47.8397 63.277 47.0132C63.7384 46.1866 63.9736 44.8919 63.9848 43.129V37.0608Z" fill="#A1C6FF"/>
</g>
<path d="M152.504 165.032H62.3594V166.376H152.504V165.032Z" fill="#A1C6FF"/>
<path d="M107.431 172.688H88.7852V174.032H107.431V172.688Z" fill="#A1C6FF"/>
<g opacity="0.5">
<path d="M34.0304 109.578C36.7977 109.578 39.0413 107.335 39.0413 104.568C39.0413 101.8 36.7977 99.5566 34.0304 99.5566C31.2631 99.5566 29.0195 101.8 29.0195 104.568C29.0195 107.335 31.2631 109.578 34.0304 109.578Z" fill="#A1C6FF"/>
<path d="M29.5921 78.0304C31.0002 78.0304 32.1412 76.8893 32.1412 75.4813C32.1412 74.0736 31.0002 72.9321 29.5921 72.9321C28.1845 72.9321 27.043 74.0736 27.043 75.4813C27.043 76.8893 28.1845 78.0304 29.5921 78.0304Z" fill="#A1C6FF"/>
<path d="M179.663 38.6332C180.578 38.6332 181.319 37.8922 181.319 36.9779C181.319 36.0635 180.578 35.3225 179.663 35.3225C178.749 35.3225 178.008 36.0635 178.008 36.9779C178.008 37.8922 178.749 38.6332 179.663 38.6332Z" fill="#A1C6FF"/>
<path d="M203.547 42.7438C205.139 42.7438 206.43 41.4531 206.43 39.8609C206.43 38.2687 205.139 36.978 203.547 36.978C201.955 36.978 200.664 38.2687 200.664 39.8609C200.664 41.4531 201.955 42.7438 203.547 42.7438Z" fill="#A1C6FF"/>
<path d="M208.273 123.115C210.884 123.115 213 120.999 213 118.389C213 115.778 210.884 113.662 208.273 113.662C205.663 113.662 203.547 115.778 203.547 118.389C203.547 120.999 205.663 123.115 208.273 123.115Z" fill="#A1C6FF"/>
<path d="M203.547 184.932C205.139 184.932 206.43 183.641 206.43 182.049C206.43 180.457 205.139 179.166 203.547 179.166C201.955 179.166 200.664 180.457 200.664 182.049C200.664 183.641 201.955 184.932 203.547 184.932Z" fill="#A1C6FF"/>
<path d="M34.5662 151.2C35.6772 151.2 36.5777 150.299 36.5777 149.188C36.5777 148.077 35.6772 147.177 34.5662 147.177C33.4552 147.177 32.5547 148.077 32.5547 149.188C32.5547 150.299 33.4552 151.2 34.5662 151.2Z" fill="#A1C6FF"/>
</g>
</g>
<path d="M39.5859 246H35.6113L28.8223 235.021V246H25.041V230.005H29.9717L35.8047 239.168V230.005H39.5859V246ZM55.7852 239.974C55.7852 241.957 55.2051 243.522 54.0449 244.668C52.8919 245.807 51.2699 246.376 49.1787 246.376C47.0876 246.376 45.4619 245.807 44.3018 244.668C43.1488 243.522 42.5723 241.957 42.5723 239.974C42.5723 237.976 43.1523 236.407 44.3125 235.269C45.4798 234.13 47.1019 233.561 49.1787 233.561C51.2842 233.561 52.9098 234.133 54.0557 235.279C55.2087 236.425 55.7852 237.99 55.7852 239.974ZM51.0264 242.906C51.277 242.598 51.4632 242.229 51.585 241.8C51.7139 241.363 51.7783 240.761 51.7783 239.995C51.7783 239.286 51.7139 238.692 51.585 238.212C51.4561 237.732 51.277 237.349 51.0479 237.062C50.8187 236.769 50.543 236.561 50.2207 236.439C49.8984 236.318 49.5511 236.257 49.1787 236.257C48.8063 236.257 48.4733 236.307 48.1797 236.407C47.8932 236.507 47.6175 236.708 47.3525 237.009C47.1162 237.288 46.9264 237.671 46.7832 238.158C46.6471 238.645 46.5791 239.257 46.5791 239.995C46.5791 240.654 46.64 241.227 46.7617 241.714C46.8835 242.194 47.0625 242.58 47.2988 242.874C47.528 243.153 47.8001 243.357 48.1152 243.486C48.4375 243.615 48.8027 243.68 49.2109 243.68C49.5618 243.68 49.8949 243.622 50.21 243.508C50.5322 243.386 50.8044 243.186 51.0264 242.906ZM81.4053 238.019C81.4053 239.508 81.0651 240.844 80.3848 242.025C79.7044 243.2 78.8451 244.102 77.8066 244.732C77.026 245.205 76.1702 245.535 75.2393 245.721C74.3083 245.907 73.2054 246 71.9307 246H66.291V230.005H72.0918C73.3952 230.005 74.5195 230.116 75.4648 230.338C76.4102 230.553 77.2051 230.861 77.8496 231.262C78.9525 231.935 79.819 232.844 80.4492 233.99C81.0866 235.129 81.4053 236.472 81.4053 238.019ZM77.1406 237.986C77.1406 236.934 76.9473 236.035 76.5605 235.29C76.181 234.538 75.5758 233.951 74.7451 233.528C74.3226 233.321 73.8893 233.181 73.4453 233.109C73.0085 233.031 72.346 232.991 71.458 232.991H70.416V243.003H71.458C72.4391 243.003 73.1589 242.96 73.6172 242.874C74.0755 242.781 74.5231 242.616 74.96 242.38C75.7119 241.95 76.2633 241.377 76.6143 240.661C76.9652 239.938 77.1406 239.046 77.1406 237.986ZM91.6426 242.853V240.339C91.1198 240.382 90.554 240.443 89.9453 240.521C89.3366 240.593 88.8747 240.679 88.5596 240.779C88.1729 240.901 87.8757 241.08 87.668 241.316C87.4674 241.546 87.3672 241.85 87.3672 242.229C87.3672 242.48 87.3887 242.684 87.4316 242.842C87.4746 242.999 87.582 243.15 87.7539 243.293C87.9186 243.436 88.1156 243.544 88.3447 243.615C88.5739 243.68 88.932 243.712 89.4189 243.712C89.8057 243.712 90.196 243.633 90.5898 243.476C90.9909 243.318 91.3418 243.11 91.6426 242.853ZM91.6426 244.722C91.4349 244.879 91.1771 245.069 90.8691 245.291C90.5612 245.513 90.2712 245.688 89.999 245.817C89.6195 245.989 89.2256 246.115 88.8174 246.193C88.4092 246.279 87.9616 246.322 87.4746 246.322C86.3288 246.322 85.3691 245.968 84.5957 245.259C83.8223 244.55 83.4355 243.644 83.4355 242.541C83.4355 241.66 83.6325 240.94 84.0264 240.382C84.4202 239.823 84.9788 239.383 85.7021 239.061C86.4183 238.738 87.3063 238.509 88.3662 238.373C89.4261 238.237 90.5254 238.137 91.6641 238.072V238.008C91.6641 237.342 91.3919 236.883 90.8477 236.633C90.3034 236.375 89.5013 236.246 88.4414 236.246C87.804 236.246 87.1237 236.361 86.4004 236.59C85.6771 236.812 85.1579 236.984 84.8428 237.105H84.4883V234.194C84.8965 234.087 85.5589 233.962 86.4756 233.818C87.3994 233.668 88.3232 233.593 89.2471 233.593C91.4456 233.593 93.0319 233.933 94.0059 234.613C94.987 235.286 95.4775 236.346 95.4775 237.793V246H91.6426V244.722ZM106.746 245.893C106.331 246 105.89 246.082 105.425 246.14C104.959 246.204 104.39 246.236 103.717 246.236C102.213 246.236 101.092 245.932 100.354 245.323C99.624 244.715 99.2588 243.673 99.2588 242.197V236.558H97.6689V233.937H99.2588V230.488H103.126V233.937H106.746V236.558H103.126V240.833C103.126 241.256 103.13 241.624 103.137 241.939C103.144 242.255 103.201 242.537 103.309 242.788C103.409 243.039 103.584 243.239 103.835 243.39C104.093 243.533 104.465 243.604 104.952 243.604C105.153 243.604 105.414 243.562 105.736 243.476C106.066 243.39 106.295 243.311 106.424 243.239H106.746V245.893ZM116.371 242.853V240.339C115.848 240.382 115.283 240.443 114.674 240.521C114.065 240.593 113.603 240.679 113.288 240.779C112.901 240.901 112.604 241.08 112.396 241.316C112.196 241.546 112.096 241.85 112.096 242.229C112.096 242.48 112.117 242.684 112.16 242.842C112.203 242.999 112.311 243.15 112.482 243.293C112.647 243.436 112.844 243.544 113.073 243.615C113.302 243.68 113.66 243.712 114.147 243.712C114.534 243.712 114.924 243.633 115.318 243.476C115.719 243.318 116.07 243.11 116.371 242.853ZM116.371 244.722C116.163 244.879 115.906 245.069 115.598 245.291C115.29 245.513 115 245.688 114.728 245.817C114.348 245.989 113.954 246.115 113.546 246.193C113.138 246.279 112.69 246.322 112.203 246.322C111.057 246.322 110.098 245.968 109.324 245.259C108.551 244.55 108.164 243.644 108.164 242.541C108.164 241.66 108.361 240.94 108.755 240.382C109.149 239.823 109.707 239.383 110.431 239.061C111.147 238.738 112.035 238.509 113.095 238.373C114.155 238.237 115.254 238.137 116.393 238.072V238.008C116.393 237.342 116.12 236.883 115.576 236.633C115.032 236.375 114.23 236.246 113.17 236.246C112.533 236.246 111.852 236.361 111.129 236.59C110.406 236.812 109.886 236.984 109.571 237.105H109.217V234.194C109.625 234.087 110.287 233.962 111.204 233.818C112.128 233.668 113.052 233.593 113.976 233.593C116.174 233.593 117.76 233.933 118.734 234.613C119.715 235.286 120.206 236.346 120.206 237.793V246H116.371V244.722ZM139.102 232.121H138.812C138.64 232.071 138.414 232.014 138.135 231.949C137.863 231.885 137.569 231.853 137.254 231.853C136.495 231.853 135.979 231.989 135.707 232.261C135.442 232.533 135.31 233.059 135.31 233.84V233.937H138.296V236.558H135.438V246H131.571V236.558H129.917V233.937H131.571V233.604C131.571 232.128 131.962 231.022 132.742 230.284C133.53 229.547 134.719 229.178 136.309 229.178C136.882 229.178 137.401 229.199 137.866 229.242C138.332 229.278 138.743 229.328 139.102 229.393V232.121ZM152.916 239.974C152.916 241.957 152.336 243.522 151.176 244.668C150.023 245.807 148.401 246.376 146.31 246.376C144.218 246.376 142.593 245.807 141.433 244.668C140.28 243.522 139.703 241.957 139.703 239.974C139.703 237.976 140.283 236.407 141.443 235.269C142.611 234.13 144.233 233.561 146.31 233.561C148.415 233.561 150.041 234.133 151.187 235.279C152.34 236.425 152.916 237.99 152.916 239.974ZM148.157 242.906C148.408 242.598 148.594 242.229 148.716 241.8C148.845 241.363 148.909 240.761 148.909 239.995C148.909 239.286 148.845 238.692 148.716 238.212C148.587 237.732 148.408 237.349 148.179 237.062C147.95 236.769 147.674 236.561 147.352 236.439C147.029 236.318 146.682 236.257 146.31 236.257C145.937 236.257 145.604 236.307 145.311 236.407C145.024 236.507 144.748 236.708 144.483 237.009C144.247 237.288 144.057 237.671 143.914 238.158C143.778 238.645 143.71 239.257 143.71 239.995C143.71 240.654 143.771 241.227 143.893 241.714C144.014 242.194 144.193 242.58 144.43 242.874C144.659 243.153 144.931 243.357 145.246 243.486C145.568 243.615 145.934 243.68 146.342 243.68C146.693 243.68 147.026 243.622 147.341 243.508C147.663 243.386 147.935 243.186 148.157 242.906ZM167.708 246H163.841V244.668C163.125 245.212 162.469 245.628 161.875 245.914C161.281 246.193 160.572 246.333 159.748 246.333C158.416 246.333 157.388 245.95 156.665 245.184C155.949 244.417 155.591 243.286 155.591 241.789V233.937H159.479V239.92C159.479 240.529 159.497 241.037 159.533 241.445C159.576 241.846 159.669 242.179 159.812 242.444C159.949 242.709 160.153 242.903 160.425 243.024C160.704 243.146 161.091 243.207 161.585 243.207C161.914 243.207 162.28 243.146 162.681 243.024C163.082 242.903 163.468 242.724 163.841 242.487V233.937H167.708V246ZM183.488 246H179.6V240.017C179.6 239.53 179.575 239.046 179.524 238.566C179.474 238.079 179.388 237.721 179.267 237.492C179.123 237.227 178.912 237.034 178.633 236.912C178.361 236.79 177.978 236.729 177.483 236.729C177.132 236.729 176.774 236.787 176.409 236.901C176.051 237.016 175.661 237.199 175.238 237.449V246H171.371V233.937H175.238V235.269C175.926 234.731 176.585 234.32 177.215 234.033C177.852 233.747 178.558 233.604 179.331 233.604C180.634 233.604 181.651 233.983 182.382 234.742C183.119 235.501 183.488 236.636 183.488 238.147V246ZM198.785 246H194.918V244.743C194.252 245.287 193.629 245.688 193.049 245.946C192.469 246.204 191.799 246.333 191.04 246.333C189.572 246.333 188.397 245.767 187.517 244.636C186.636 243.504 186.195 241.979 186.195 240.06C186.195 239.035 186.342 238.13 186.636 237.342C186.937 236.547 187.345 235.867 187.86 235.301C188.347 234.764 188.938 234.348 189.633 234.055C190.327 233.754 191.022 233.604 191.717 233.604C192.44 233.604 193.031 233.682 193.489 233.84C193.955 233.99 194.431 234.184 194.918 234.42V229.285H198.785V246ZM194.918 242.67V236.751C194.646 236.636 194.359 236.554 194.059 236.504C193.758 236.454 193.482 236.429 193.231 236.429C192.215 236.429 191.452 236.747 190.943 237.385C190.435 238.015 190.181 238.892 190.181 240.017C190.181 241.198 190.385 242.058 190.793 242.595C191.201 243.125 191.856 243.39 192.759 243.39C193.11 243.39 193.482 243.325 193.876 243.196C194.27 243.06 194.617 242.885 194.918 242.67Z" fill="#1370FF"/>
</svg>
