<?xml version="1.0" encoding="UTF-8"?>
<svg id="Layer_1" xmlns="http://www.w3.org/2000/svg" version="1.1" viewBox="0 0 300 300">
  <!-- Generator: Adobe Illustrator 29.8.3, SVG Export Plug-In . SVG Version: 2.1.1 Build 3)  -->
  <defs>
    <style>
      .st0 {
        fill: #202945;
      }
    </style>
  </defs>
  <path class="st0" d="M293.96,122.33l-59.54,19.37c-5.02-22.41-10.03-44.77-14.95-66.81-3.22-14.22-6.44-28.48-9.76-43.16h-4.14c-20.25,0-40.54.09-60.78-.05-3.13-.05-4.37,0-4.37,0C99.14,95.69,55.61,163.38,13.88,227.06l-11.18,35.29h1.47c16.38.05,32.76.09,49.19-.09l135.69-75.69h.05c.32,1.89.69,3.77,1.06,5.66.23,1.15.46,2.3.69,3.45l1.98,10.17c.41,2.25.87,4.42,1.29,6.63l1.24,6.4c.41,2.07.83,4.14,1.2,6.17l1.15,5.89c.18.97.37,1.93.55,2.85l1.06,5.48c.18.87.37,1.75.51,2.58l.97,4.92.87,4.56c.23,1.2.46,2.3.64,3.4l.51,2.62c.37,1.79.69,3.45.97,4.92h46.2c1.7-8.24,3.87-18.31,5.43-26.41-5.66-25.31-11.37-50.98-17.12-76.7l57.65-32.16c2.81-1.47.83-5.61-1.98-4.65ZM183.53,158.22l-81.49,26.5,66.17-105.28c.18,1.01.41,2.07.64,3.22l.69,3.73c.28,1.29.55,2.71.83,4.14l1.15,5.84c.05.37.14.78.23,1.2l.97,5.15c.51,2.67,1.06,5.48,1.66,8.37l.55,2.9c.37,1.98.78,4,1.2,6.07l3.77,19.56c.23,1.1.46,2.25.69,3.4l1.47,7.5c.46,2.53.97,5.11,1.47,7.68h.05c.14.74.28,1.47.41,2.21l-.46-2.21Z"/>
</svg>
